<?xml version="1.0" encoding="UTF-8" standalone="no"?>
<!DOCTYPE svg PUBLIC "-//W3C//DTD SVG 1.1//EN" "http://www.w3.org/Graphics/SVG/1.1/DTD/svg11.dtd">
<!-- Generated by Microsoft Visio, SVG Export Protocol header.svg Page-1 -->
<svg xmlns="http://www.w3.org/2000/svg" xmlns:xlink="http://www.w3.org/1999/xlink" xmlns:ev="http://www.w3.org/2001/xml-events"
		width="6.30963in" height="4.89231in" viewBox="0 0 454.293 352.246" xml:space="preserve" color-interpolation-filters="sRGB"
		class="st6">
	<style type="text/css">
	<![CDATA[
		.st1 {fill:none;stroke:none;stroke-linecap:round;stroke-linejoin:round;stroke-width:0.75}
		.st2 {fill:#000000;font-family:Consolas;font-size:1.00001em}
		.st3 {stroke:#000000;stroke-linecap:round;stroke-linejoin:round;stroke-width:0.75}
		.st4 {stroke:#000000;stroke-dasharray:0.75,1.5;stroke-linecap:round;stroke-linejoin:round;stroke-width:0.75}
		.st5 {fill:#000000;font-family:Consolas;font-size:0.75em}
		.st6 {fill:none;fill-rule:evenodd;font-size:12px;overflow:visible;stroke-linecap:square;stroke-miterlimit:3}
	]]>
	</style>

	<g>
		<title>Page-1</title>
		<g id="group59-1" transform="translate(0.375,-0.375002)">
			<title>Sheet.59</title>
			<g id="group53-2">
				<title>Sheet.53</title>
				<g id="shape38-3" transform="translate(0,-297.638)">
					<title>Sheet.38</title>
					<desc>Number used once</desc>
					<rect x="0" y="309.726" width="453.543" height="42.5197" class="st1"/>
					<text x="173.99" y="334.59" class="st2">Number used once</text>				</g>
				<g id="shape39-6" transform="translate(-1.59872E-014,-255.118)">
					<title>Sheet.39</title>
					<desc>Flags</desc>
					<rect x="0" y="309.726" width="113.386" height="42.5197" class="st1"/>
					<text x="40.2" y="334.59" class="st2">Flags</text>				</g>
				<g id="shape40-9" transform="translate(113.386,-255.118)">
					<title>Sheet.40</title>
					<desc>Reserved 1</desc>
					<rect x="0" y="309.726" width="113.386" height="42.5197" class="st1"/>
					<text x="23.7" y="334.59" class="st2">Reserved 1</text>				</g>
				<g id="shape41-12" transform="translate(226.772,-255.118)">
					<title>Sheet.41</title>
					<desc>Reserved 2</desc>
					<rect x="0" y="309.726" width="113.386" height="42.5197" class="st1"/>
					<text x="23.7" y="334.59" class="st2">Reserved 2</text>				</g>
				<g id="shape42-15" transform="translate(340.157,-255.118)">
					<title>Sheet.42</title>
					<desc>Reserved 3</desc>
					<rect x="0" y="309.726" width="113.386" height="42.5197" class="st1"/>
					<text x="23.7" y="334.59" class="st2">Reserved 3</text>				</g>
				<g id="shape43-18" transform="translate(0,-212.598)">
					<title>Sheet.43</title>
					<desc>Sequence Number</desc>
					<rect x="0" y="309.726" width="453.543" height="42.5197" class="st1"/>
					<text x="177.29" y="334.59" class="st2">Sequence Number</text>				</g>
				<g id="shape44-21" transform="translate(0,-170.079)">
					<title>Sheet.44</title>
					<desc>Acknowledgment Number</desc>
					<rect x="0" y="309.726" width="453.543" height="42.5197" class="st1"/>
					<text x="157.49" y="334.59" class="st2">Acknowledgment Number</text>				</g>
				<g id="shape45-24" transform="translate(0,-127.559)">
					<title>Sheet.45</title>
					<desc>Source Address</desc>
					<rect x="0" y="309.726" width="453.543" height="42.5197" class="st1"/>
					<text x="180.59" y="334.59" class="st2">Source Address</text>				</g>
				<g id="shape46-27" transform="translate(0,-85.0394)">
					<title>Sheet.46</title>
					<desc>Destination Address</desc>
					<rect x="0" y="309.726" width="453.543" height="42.5197" class="st1"/>
					<text x="164.09" y="334.59" class="st2">Destination Address</text>				</g>
				<g id="shape48-30" transform="translate(0,-42.5197)">
					<title>Sheet.48</title>
					<desc>[Data]</desc>
					<rect x="0" y="309.726" width="453.543" height="42.5197" class="st1"/>
					<text x="206.98" y="334.59" class="st2">[Data]</text>				</g>
				<g id="shape49-33">
					<title>Sheet.49</title>
					<desc>[…]</desc>
					<rect x="0" y="309.726" width="453.543" height="42.5197" class="st1"/>
					<text x="216.88" y="334.59" class="st2">[…]</text>				</g>
				<g id="group52-36">
					<title>Sheet.52</title>
					<g id="shape18-37" transform="translate(0,-340.157)">
						<title>Sheet.18</title>
						<path d="M0 352.25 L453.54 352.25" class="st3"/>
					</g>
					<g id="shape22-40" transform="translate(0,-297.638)">
						<title>Sheet.22</title>
						<path d="M0 352.25 L453.54 352.25" class="st3"/>
					</g>
					<g id="shape23-43" transform="translate(465.632,54.6083) rotate(90)">
						<title>Sheet.23</title>
						<path d="M0 352.25 L42.52 352.25" class="st3"/>
					</g>
					<g id="shape24-46" transform="translate(579.018,54.6083) rotate(90)">
						<title>Sheet.24</title>
						<path d="M0 352.25 L42.52 352.25" class="st3"/>
					</g>
					<g id="shape25-49" transform="translate(692.404,54.6083) rotate(90)">
						<title>Sheet.25</title>
						<path d="M0 352.25 L42.52 352.25" class="st3"/>
					</g>
					<g id="shape26-52" transform="translate(0,-255.118)">
						<title>Sheet.26</title>
						<path d="M0 352.25 L453.54 352.25" class="st3"/>
					</g>
					<g id="shape27-55" transform="translate(0,-212.598)">
						<title>Sheet.27</title>
						<path d="M0 352.25 L453.54 352.25" class="st3"/>
					</g>
					<g id="shape28-58" transform="translate(0,-170.079)">
						<title>Sheet.28</title>
						<path d="M0 352.25 L453.54 352.25" class="st3"/>
					</g>
					<g id="shape29-61" transform="translate(0,-127.559)">
						<title>Sheet.29</title>
						<path d="M0 352.25 L453.54 352.25" class="st3"/>
					</g>
					<g id="shape30-64" transform="translate(0,-85.0394)">
						<title>Sheet.30</title>
						<path d="M0 352.25 L453.54 352.25" class="st3"/>
					</g>
					<g id="shape31-67" transform="translate(0,-42.5197)">
						<title>Sheet.31</title>
						<path d="M0 352.25 L453.54 352.25" class="st4"/>
					</g>
					<g id="shape32-70">
						<title>Sheet.32</title>
						<path d="M0 352.25 L453.54 352.25" class="st4"/>
					</g>
					<g id="shape33-73" transform="translate(352.246,12.0886) rotate(90)">
						<title>Sheet.33</title>
						<path d="M0 352.25 L255.12 352.25" class="st3"/>
					</g>
					<g id="shape34-76" transform="translate(805.789,12.0886) rotate(90)">
						<title>Sheet.34</title>
						<path d="M0 352.25 L255.12 352.25" class="st3"/>
					</g>
					<g id="shape50-79" transform="translate(352.246,267.207) rotate(90)">
						<title>Sheet.50</title>
						<path d="M0 352.25 L85.04 352.25" class="st4"/>
					</g>
					<g id="shape51-82" transform="translate(805.789,267.207) rotate(90)">
						<title>Sheet.51</title>
						<path d="M0 352.25 L85.04 352.25" class="st4"/>
					</g>
				</g>
			</g>
			<g id="shape54-85" transform="translate(0,-340.157)">
				<title>Sheet.54</title>
				<desc>0</desc>
				<rect x="0" y="340.907" width="14.1732" height="11.3386" class="st1"/>
				<text x="4.61" y="349.28" class="st5">0</text>			</g>
			<g id="shape55-88" transform="translate(113.386,-340.157)">
				<title>Sheet.55</title>
				<desc>8</desc>
				<rect x="0" y="340.907" width="14.1732" height="11.3386" class="st1"/>
				<text x="4.61" y="349.28" class="st5">8</text>			</g>
			<g id="shape56-91" transform="translate(226.772,-340.157)">
				<title>Sheet.56</title>
				<desc>16</desc>
				<rect x="0" y="340.907" width="19.8425" height="11.3386" class="st1"/>
				<text x="4.97" y="349.28" class="st5">16</text>			</g>
			<g id="shape57-94" transform="translate(340.157,-340.157)">
				<title>Sheet.57</title>
				<desc>24</desc>
				<rect x="0" y="340.907" width="19.8425" height="11.3386" class="st1"/>
				<text x="4.97" y="349.28" class="st5">24</text>			</g>
			<g id="shape58-97" transform="translate(433.701,-340.157)">
				<title>Sheet.58</title>
				<desc>31</desc>
				<rect x="0" y="340.907" width="19.8425" height="11.3386" class="st1"/>
				<text x="4.97" y="349.28" class="st5">31</text>			</g>
		</g>
	</g>
</svg>
